<?xml version="1.0" encoding="UTF-8"?>
<svg width="34px" height="34px" viewBox="0 0 34 34" version="1.1" xmlns="http://www.w3.org/2000/svg" xmlns:xlink="http://www.w3.org/1999/xlink">
    <!-- Generator: sketchtool 53.2 (72643) - https://sketchapp.com -->
    <title>79A42A81-3E85-424B-B4B2-7CB3558507B4</title>
    <desc>Created with sketchtool.</desc>
    <g id="Page-1" stroke="none" stroke-width="1" fill="none" fill-rule="evenodd">
        <g id="1.0-Homepage-V1" transform="translate(-1161.000000, -3123.000000)">
            <g id="Social-Buttons" transform="translate(1011.000000, 3123.000000)">
                <g id="ico-" transform="translate(150.000000, 0.000000)">
                    <circle id="Background" fill="#FFFFFF" cx="17" cy="17" r="17"></circle>
                    <path d="M24.9419752,13.7744377 C24.8725766,15.1268333 23.7865829,16.9755435 21.6914966,19.3213857 C19.5232604,21.7743403 17.6860741,23 16.1846269,23 C15.2561866,23 14.469357,22.2543018 13.8269514,20.7579995 C13.3964927,19.3851625 12.9688475,18.0123256 12.5393267,16.6435769 C12.0610393,15.146457 11.5489904,14.3983058 11.0013045,14.3983058 C10.8822016,14.3983058 10.466748,14.6166188 9.75025473,15.0540623 L9,14.2110636 C9.78589183,13.6100897 10.5605298,13.0066629 11.3248518,12.4048713 C12.3714572,11.61502 13.1582868,11.2004706 13.6834652,11.1571351 C14.9213855,11.0524757 15.6847697,11.790815 15.9726799,13.3697002 C16.2793465,15.0745036 16.4950448,16.13418 16.6141477,16.549547 C16.9723943,17.9624489 17.3644024,18.6672645 17.7939233,18.6672645 C18.1268488,18.6672645 18.6276438,18.2110149 19.2953705,17.2976982 C19.9630973,16.3827461 20.3185304,15.6877423 20.367297,15.2085985 C20.4629545,14.4187471 20.1056457,14.0262744 19.2953705,14.0262744 C18.9136784,14.0262744 18.5197947,14.0965924 18.115595,14.2437697 C18.9033624,12.0205751 20.4038719,10.9396398 22.6208746,11.002599 C24.2629947,11.0426639 25.0385705,11.9682454 24.9419752,13.7744377" id="Vimeo" fill="#006790"></path>
                </g>
            </g>
        </g>
    </g>
</svg>