<?xml version="1.0" encoding="UTF-8"?>
<svg width="34px" height="34px" viewBox="0 0 34 34" version="1.1" xmlns="http://www.w3.org/2000/svg" xmlns:xlink="http://www.w3.org/1999/xlink">
    <!-- Generator: sketchtool 53.2 (72643) - https://sketchapp.com -->
    <title>FEED928A-C98B-45FA-A4AF-D8A996E7CDFE</title>
    <desc>Created with sketchtool.</desc>
    <g id="Page-1" stroke="none" stroke-width="1" fill="none" fill-rule="evenodd">
        <g id="1.0-Homepage-V1" transform="translate(-1111.000000, -3123.000000)">
            <g id="Social-Buttons" transform="translate(1011.000000, 3123.000000)">
                <g id="ico-tumblt" transform="translate(100.000000, 0.000000)">
                    <circle id="Background" fill="#FFFFFF" cx="17" cy="17" r="17"></circle>
                    <path d="M18.3,9 L18.3,12.5 L21.8,12.5 L21.8,15.3 L18.3,15.3 L18.3,19.1605 C18.3,22.6801 20.764,22.2594 22.5,21.1191 L22.5,24.2222 C17.7904,26.4426 14.1,24.1774 14.1,21.2437 L14.1,15.3 L12,15.3 L12,13.3176 C12.6321,13.1125 13.5715,12.8178 14.0223,12.4349 C14.4745,12.0492 14.8357,11.5893 15.108,11.0517 C15.3817,10.5148 15.57,9.8302 15.6722,9 L18.3,9 L18.3,9 Z" id="Tumblr" fill="#006790"></path>
                </g>
            </g>
        </g>
    </g>
</svg>