<svg id="Capa_1" enable-background="new 0 0 512 512" height="512" viewBox="0 0 512 512" width="512" xmlns="http://www.w3.org/2000/svg"><g id="XMLID_1539_"><g id="XMLID_649_"><path id="XMLID_650_" d="m436.442 217.65c1.595 3.851 5.318 6.176 9.242 6.176 1.275 0 2.571-.246 3.823-.765l27.329-11.32c5.103-2.113 7.525-7.963 5.412-13.065-2.114-5.102-7.963-7.525-13.066-5.411l-27.329 11.32c-5.102 2.113-7.525 7.962-5.411 13.065z"/><path id="XMLID_675_" d="m502 302.113h-92.333c-5.171-80.272-72.111-144-153.667-144s-148.495 63.728-153.667 144h-92.333c-5.522 0-10 4.478-10 10s4.478 10 10 10h201c5.522 0 10-4.478 10-10s-4.478-10-10-10h-88.627c5.132-69.235 63.103-124 133.627-124s128.495 54.765 133.627 124h-88.627c-5.522 0-10 4.478-10 10s4.478 10 10 10h201c5.522 0 10-4.478 10-10s-4.478-10-10-10z"/><path id="XMLID_676_" d="m256 134.164c5.522 0 10-4.478 10-10v-94.428c0-5.522-4.478-10-10-10s-10 4.478-10 10v94.429c0 5.522 4.478 9.999 10 9.999z"/><path id="XMLID_677_" d="m330.741 131.671c1.252.518 2.548.764 3.823.764 3.924 0 7.647-2.325 9.243-6.176l11.32-27.33c2.113-5.103-.31-10.952-5.412-13.066-5.103-2.109-10.952.311-13.066 5.412l-11.32 27.33c-2.113 5.102.31 10.952 5.412 13.066z"/><path id="XMLID_678_" d="m388.899 189.213c2.56 0 5.118-.977 7.071-2.929l67.726-67.726c3.905-3.905 3.905-10.237 0-14.143-3.906-3.904-10.236-3.904-14.143 0l-67.726 67.726c-3.905 3.905-3.905 10.237 0 14.143 1.954 1.953 4.513 2.929 7.072 2.929z"/><path id="XMLID_679_" d="m168.192 126.259c1.596 3.851 5.319 6.176 9.243 6.176 1.275 0 2.571-.246 3.823-.764 5.103-2.114 7.525-7.964 5.412-13.066l-11.32-27.33c-2.114-5.102-7.963-7.522-13.066-5.412-5.103 2.114-7.525 7.964-5.412 13.066z"/><path id="XMLID_680_" d="m35.163 231.462 27.329 11.32c1.252.519 2.548.765 3.823.765 3.924 0 7.647-2.325 9.242-6.176 2.114-5.103-.309-10.952-5.411-13.065l-27.329-11.32c-5.104-2.112-10.951.31-13.066 5.411-2.113 5.102.31 10.952 5.412 13.065z"/><path id="XMLID_681_" d="m116.029 186.285c1.953 1.952 4.512 2.929 7.071 2.929s5.118-.977 7.071-2.929c3.905-3.905 3.905-10.237 0-14.143l-67.726-67.726c-3.906-3.904-10.236-3.904-14.143 0-3.905 3.905-3.905 10.237 0 14.143z"/><path id="XMLID_682_" d="m424.643 375.745c-7.498 7.499-17.467 11.628-28.071 11.628s-20.573-4.129-28.071-11.628c-23.277-23.275-61.151-23.275-84.429 0-7.498 7.499-17.467 11.628-28.071 11.628s-20.573-4.129-28.071-11.628c-23.278-23.275-61.152-23.275-84.429 0-7.498 7.499-17.468 11.628-28.071 11.628-10.604 0-20.573-4.129-28.071-11.628-3.905-3.902-10.235-3.904-14.143 0-3.905 3.905-3.905 10.237 0 14.143 11.275 11.275 26.268 17.485 42.214 17.485s30.938-6.21 42.214-17.485c15.479-15.479 40.665-15.479 56.144 0 11.275 11.275 26.268 17.485 42.214 17.485s30.938-6.21 42.214-17.485c15.478-15.479 40.664-15.479 56.144 0 11.276 11.275 26.268 17.485 42.214 17.485s30.938-6.21 42.214-17.485c3.905-3.905 3.905-10.237 0-14.143-3.909-3.904-10.241-3.904-14.145 0z"/><path id="XMLID_683_" d="m354.357 460.664c-7.498 7.499-17.468 11.628-28.071 11.628-10.604 0-20.574-4.129-28.072-11.628-11.275-11.275-26.268-17.485-42.214-17.485s-30.938 6.21-42.214 17.485c-7.498 7.499-17.468 11.628-28.072 11.628s-20.573-4.129-28.071-11.628c-3.906-3.904-10.236-3.904-14.143 0-3.905 3.905-3.905 10.237 0 14.143 23.278 23.277 61.152 23.275 84.429 0 7.498-7.499 17.467-11.628 28.071-11.628s20.573 4.129 28.071 11.628c11.639 11.639 26.927 17.457 42.215 17.457 15.287 0 30.575-5.818 42.214-17.457 3.905-3.905 3.905-10.237 0-14.143-3.906-3.904-10.236-3.904-14.143 0z"/><path id="XMLID_684_" d="m263.069 319.184c1.86-1.86 2.931-4.44 2.931-7.07s-1.07-5.21-2.931-7.069c-1.859-1.86-4.439-2.931-7.069-2.931-2.641 0-5.21 1.07-7.07 2.931-1.86 1.859-2.93 4.439-2.93 7.069s1.069 5.21 2.93 7.07 4.44 2.93 7.07 2.93 5.21-1.07 7.069-2.93z"/></g></g></svg>